<svg xmlns="http://www.w3.org/2000/svg" viewBox="0 0 1200 1200" role="img" aria-label="Nature's Way Soil Living Soil Revitalizer front pouch"><rect width="1200" height="1200" fill="#f8f8f5"/><path d="M235 85h730c40 0 70 30 70 70v890c0 48-38 86-86 86H251c-48 0-86-38-86-86V155c0-40 30-70 70-70z" fill="#c99d62"/><rect x="250" y="220" width="700" height="540" rx="24" fill="#fffdf2"/><rect x="250" y="220" width="700" height="155" rx="24" fill="#06391f"/><circle cx="600" cy="345" r="58" fill="#0c4a2a" stroke="#c6a036" stroke-width="4"/><text x="600" y="315" font-family="Georgia, serif" font-size="40" font-weight="700" fill="#ffffff" text-anchor="middle" letter-spacing="5">NATURE’S WAY SOIL</text><text x="600" y="490" font-family="Georgia, serif" font-size="58" fill="#19331f" text-anchor="middle">Living Soil Revitalizer</text><rect x="350" y="515" width="500" height="45" rx="20" fill="#06391f"/><text x="600" y="545" font-family="Arial, sans-serif" font-size="25" font-weight="900" fill="#fffdf2" text-anchor="middle" letter-spacing="3">CASTINGS + ACTIVATED BIOCHAR</text><text x="600" y="610" font-family="Georgia, serif" font-size="28" fill="#351b10" text-anchor="middle">With Kelp, Humic &amp; Fulvic Acids, and BM-1 Biology</text><line x1="390" y1="635" x2="810" y2="635" stroke="#c6a036" stroke-width="3"/><text x="600" y="680" font-family="Arial, sans-serif" font-size="25" font-weight="700" fill="#19331f" text-anchor="middle" letter-spacing="5">FOR GARDENS • RAISED BEDS • POTTED PLANTS</text><text x="390" y="744" font-family="Arial, sans-serif" font-size="24" font-weight="700" fill="#111">REVIVES TIRED SOIL</text><text x="390" y="809" font-family="Arial, sans-serif" font-size="24" font-weight="700" fill="#111">SUPPORTS ROOT GROWTH</text><text x="390" y="874" font-family="Arial, sans-serif" font-size="24" font-weight="700" fill="#111">HELPS HOLD MOISTURE &amp; NUTRIENTS</text><ellipse cx="650" cy="890" rx="320" ry="95" fill="#231910"/><path d="M705 775c70 10 120 55 145 120" stroke="#2f7d32" stroke-width="10" fill="none"/><circle cx="865" cy="870" r="26" fill="#d9491e"/><circle cx="815" cy="845" r="20" fill="#d9491e"/><text x="835" y="735" font-family="Arial, sans-serif" font-size="26" fill="#111" text-anchor="middle">Net Wt. 4 lb (.81 kg)</text><rect x="220" y="760" width="760" height="260" fill="#151515" opacity=".82"/><path d="M215 1010 C360 1070, 850 1070, 985 1010 L985 1110 C820 1165, 370 1165, 215 1110 Z" fill="#c99d62"/></svg>