<svg xmlns="http://www.w3.org/2000/svg" width="1200" height="1200" viewBox="0 0 1200 1200" role="img" aria-label="Nature's Way Soil Dog Urine Neutralizer bundle with 32 ounce hose-end sprayer and 1 gallon refill">
  <defs>
    <linearGradient id="bg" x1="0" x2="0" y1="0" y2="1">
      <stop offset="0" stop-color="#ffffff"/>
      <stop offset="1" stop-color="#f4faf3"/>
    </linearGradient>
    <filter id="shadow" x="-20%" y="-20%" width="140%" height="140%">
      <feDropShadow dx="0" dy="18" stdDeviation="18" flood-color="#0f172a" flood-opacity="0.18"/>
    </filter>
  </defs>
  <rect width="1200" height="1200" fill="url(#bg)"/>
  <ellipse cx="615" cy="1085" rx="430" ry="45" fill="#0f172a" opacity="0.12"/>
  <g filter="url(#shadow)">
    <rect x="590" y="150" width="430" height="850" rx="70" fill="#ffffff" stroke="#e5e7eb" stroke-width="6"/>
    <rect x="700" y="90" width="120" height="88" rx="25" fill="#ffffff" stroke="#e5e7eb" stroke-width="6"/>
    <rect x="720" y="65" width="82" height="38" rx="12" fill="#f3f4f6" stroke="#d1d5db" stroke-width="5"/>
    <path d="M855 175h210c60 0 100 50 82 106l-45 145c-17 54-61 82-117 82H855c-33 0-60-27-60-60V235c0-33 27-60 60-60zm38 84c-21 0-38 17-38 38v79c0 21 17 38 38 38h105c24 0 44-14 51-37l24-77c8-25-11-51-38-51H893z" fill="#ffffff" stroke="#e5e7eb" stroke-width="6"/>
    <rect x="635" y="395" width="345" height="405" rx="28" fill="#ffffff" stroke="#d8eee0" stroke-width="5"/>
  </g>
  <g filter="url(#shadow)">
    <rect x="185" y="445" width="330" height="520" rx="44" fill="#ffffff" stroke="#e5e7eb" stroke-width="6"/>
    <rect x="220" y="375" width="125" height="90" rx="18" fill="#ffffff" stroke="#e5e7eb" stroke-width="6"/>
    <rect x="220" y="335" width="125" height="48" rx="14" fill="#0a8f31"/>
    <rect x="182" y="284" width="284" height="85" rx="20" fill="#04962f"/>
    <rect x="425" y="270" width="110" height="118" rx="30" fill="#058d2e"/>
    <rect x="510" y="290" width="88" height="82" rx="18" fill="#04882d"/>
    <path d="M245 286h170c55 0 102-35 124-88h24v126H245z" fill="#04a13a"/>
    <rect x="210" y="615" width="280" height="270" rx="24" fill="#ffffff" stroke="#d8eee0" stroke-width="5"/>
  </g>
  <g font-family="Arial, Helvetica, sans-serif" text-anchor="middle">
    <text x="807" y="455" font-size="38" font-weight="800" fill="#111827">NATURE'S WAY SOIL®</text>
    <text x="807" y="545" font-size="72" font-weight="900" fill="#022c22">DOG URINE</text>
    <text x="807" y="620" font-size="60" font-weight="900" fill="#022c22">NEUTRALIZER</text>
    <text x="807" y="675" font-size="38" font-weight="800" fill="#111827">&amp; LAWN REVITALIZER</text>
    <path d="M763 730c45-28 105-22 148 8 25 18 35 54 14 80-23 29-76 28-121 20-44-8-92 10-113-20-22-31 23-58 72-88z" fill="#052e24"/>
    <text x="807" y="900" font-size="50" font-weight="900" fill="#111827">1 GALLON REFILL</text>
    <text x="350" y="662" font-size="30" font-weight="800" fill="#111827">NATURE'S WAY SOIL®</text>
    <text x="350" y="722" font-size="48" font-weight="900" fill="#022c22">DOG URINE</text>
    <text x="350" y="775" font-size="42" font-weight="900" fill="#022c22">NEUTRALIZER</text>
    <text x="350" y="820" font-size="28" font-weight="800" fill="#111827">&amp; LAWN REVITALIZER</text>
    <text x="350" y="885" font-size="34" font-weight="900" fill="#111827">32 OZ HOSE END</text>
    <text x="600" y="1080" font-size="48" font-weight="900" fill="#052e24">32 oz Sprayer + 1 Gallon Refill Bundle</text>
  </g>
</svg>
